<?xml version="1.0" encoding="UTF-8" standalone="no"?>
<!DOCTYPE svg PUBLIC "-//W3C//DTD SVG 1.1//EN"
 "http://www.w3.org/Graphics/SVG/1.1/DTD/svg11.dtd">
<!-- Generated by graphviz version 2.38.0 (20140413.2041)
 -->
<!-- Title: G Pages: 1 -->
<svg width="381pt" height="650pt"
 viewBox="0.00 0.00 381.44 650.00" xmlns="http://www.w3.org/2000/svg" xmlns:xlink="http://www.w3.org/1999/xlink">
<g id="graph0" class="graph" transform="scale(1 1) rotate(0) translate(4 646)">
<title>G</title>
<polygon fill="white" stroke="none" points="-4,4 -4,-646 377.444,-646 377.444,4 -4,4"/>
<g id="clust1" class="cluster"><title>cluster_Global</title>
<path fill="none" stroke="gray" d="M20,-44C20,-44 353.444,-44 353.444,-44 359.444,-44 365.444,-50 365.444,-56 365.444,-56 365.444,-622 365.444,-622 365.444,-628 359.444,-634 353.444,-634 353.444,-634 20,-634 20,-634 14,-634 8,-628 8,-622 8,-622 8,-56 8,-56 8,-50 14,-44 20,-44"/>
<text text-anchor="middle" x="186.722" y="-621.2" font-family="Times,serif" font-size="11.00" fill="gray">Global</text>
</g>
<g id="clust2" class="cluster"><title>cluster_\HaddowG</title>
<path fill="none" stroke="gray" d="M28,-96C28,-96 345.444,-96 345.444,-96 351.444,-96 357.444,-102 357.444,-108 357.444,-108 357.444,-595 357.444,-595 357.444,-601 351.444,-607 345.444,-607 345.444,-607 28,-607 28,-607 22,-607 16,-601 16,-595 16,-595 16,-108 16,-108 16,-102 22,-96 28,-96"/>
<text text-anchor="middle" x="186.722" y="-594.2" font-family="Times,serif" font-size="11.00" fill="gray">HaddowG</text>
</g>
<g id="clust3" class="cluster"><title>cluster_\HaddowG\MetaMaterial</title>
<path fill="none" stroke="gray" d="M36,-104C36,-104 337.444,-104 337.444,-104 343.444,-104 349.444,-110 349.444,-116 349.444,-116 349.444,-568 349.444,-568 349.444,-574 343.444,-580 337.444,-580 337.444,-580 36,-580 36,-580 30,-580 24,-574 24,-568 24,-568 24,-116 24,-116 24,-110 30,-104 36,-104"/>
<text text-anchor="middle" x="186.722" y="-567.2" font-family="Times,serif" font-size="11.00" fill="gray">MetaMaterial</text>
</g>
<g id="clust4" class="cluster"><title>cluster_\HaddowG\MetaMaterial\Facades</title>
<path fill="none" stroke="gray" d="M247.734,-482C247.734,-482 293.734,-482 293.734,-482 299.734,-482 305.734,-488 305.734,-494 305.734,-494 305.734,-541 305.734,-541 305.734,-547 299.734,-553 293.734,-553 293.734,-553 247.734,-553 247.734,-553 241.734,-553 235.734,-547 235.734,-541 235.734,-541 235.734,-494 235.734,-494 235.734,-488 241.734,-482 247.734,-482"/>
<text text-anchor="middle" x="270.734" y="-540.2" font-family="Times,serif" font-size="11.00" fill="gray">Facades</text>
</g>
<!-- \\HaddowG\\MetaMaterial\\Facades\\MMM -->
<g id="node1" class="node"><title>\\HaddowG\\MetaMaterial\\Facades\\MMM</title>
<polygon fill="none" stroke="black" points="297.734,-526 243.734,-526 243.734,-490 297.734,-490 297.734,-526"/>
<text text-anchor="middle" x="270.734" y="-504.7" font-family="Courier,monospace" font-size="11.00">MMM</text>
</g>
<!-- \\HaddowG\\MetaMaterial\\Metamaterial -->
<g id="node2" class="node"><title>\\HaddowG\\MetaMaterial\\Metamaterial</title>
<polygon fill="none" stroke="black" points="127.32,-310 31.8933,-310 31.8933,-274 127.32,-274 127.32,-310"/>
<text text-anchor="start" x="46.6011" y="-294.2" font-family="Courier,monospace" font-size="11.00">«abstract»</text>
<text text-anchor="start" x="40" y="-283.2" font-family="Courier,monospace" font-size="11.00">Metamaterial</text>
</g>
<!-- \\HaddowG\\MetaMaterial\\MetamaterialManager -->
<g id="node3" class="node"><title>\\HaddowG\\MetaMaterial\\MetamaterialManager</title>
<polygon fill="none" stroke="black" points="341.655,-472 199.813,-472 199.813,-436 341.655,-436 341.655,-472"/>
<text text-anchor="middle" x="270.734" y="-450.7" font-family="Courier,monospace" font-size="11.00">MetamaterialManager</text>
</g>
<!-- \\HaddowG\\MetaMaterial\\MM_Dashboard -->
<g id="node4" class="node"><title>\\HaddowG\\MetaMaterial\\MM_Dashboard</title>
<polygon fill="none" stroke="black" points="318.447,-418 223.021,-418 223.021,-382 318.447,-382 318.447,-418"/>
<text text-anchor="middle" x="270.734" y="-396.7" font-family="Courier,monospace" font-size="11.00">MM_Dashboard</text>
</g>
<!-- \\HaddowG\\MetaMaterial\\MM_Dashboard&#45;&gt;\\HaddowG\\MetaMaterial\\Metamaterial -->
<g id="edge1" class="edge"><title>\\HaddowG\\MetaMaterial\\MM_Dashboard&#45;&gt;\\HaddowG\\MetaMaterial\\Metamaterial</title>
<path fill="none" stroke="black" d="M222.959,-383.573C215.165,-380.359 207.265,-376.796 200.023,-373 168.603,-356.531 135.403,-333.497 112.007,-316.201"/>
<polygon fill="none" stroke="black" points="113.959,-313.29 103.853,-310.11 109.771,-318.898 113.959,-313.29"/>
</g>
<!-- \\HaddowG\\MetaMaterial\\MM_Exception -->
<g id="node5" class="node"><title>\\HaddowG\\MetaMaterial\\MM_Exception</title>
<polygon fill="none" stroke="black" points="318.447,-148 223.021,-148 223.021,-112 318.447,-112 318.447,-148"/>
<text text-anchor="middle" x="270.734" y="-126.7" font-family="Courier,monospace" font-size="11.00">MM_Exception</text>
</g>
<!-- \\Exception -->
<g id="node11" class="node"><title>\\Exception</title>
<ellipse fill="none" stroke="black" cx="79.6064" cy="-18" rx="48.3341" ry="18"/>
<text text-anchor="middle" x="79.6064" y="-13.8" font-family="Times,serif" font-size="14.00" fill="gray">\Exception</text>
</g>
<!-- \\HaddowG\\MetaMaterial\\MM_Exception&#45;&gt;\\Exception -->
<g id="edge2" class="edge"><title>\\HaddowG\\MetaMaterial\\MM_Exception&#45;&gt;\\Exception</title>
<path fill="none" stroke="black" d="M223.1,-117.715C215.21,-114.955 207.244,-111.72 200.023,-108 164.929,-89.9179 129.391,-61.5603 106.319,-41.5156"/>
<polygon fill="none" stroke="black" points="108.517,-38.7871 98.6994,-34.8027 103.889,-44.0395 108.517,-38.7871"/>
</g>
<!-- \\HaddowG\\MetaMaterial\\MM_Loop -->
<g id="node6" class="node"><title>\\HaddowG\\MetaMaterial\\MM_Loop</title>
<polygon fill="none" stroke="black" points="301.942,-310 239.526,-310 239.526,-274 301.942,-274 301.942,-310"/>
<text text-anchor="middle" x="270.734" y="-288.7" font-family="Courier,monospace" font-size="11.00">MM_Loop</text>
</g>
<!-- \\HaddowG\\MetaMaterial\\MM_Metabox -->
<g id="node7" class="node"><title>\\HaddowG\\MetaMaterial\\MM_Metabox</title>
<polygon fill="none" stroke="black" points="311.744,-364 229.723,-364 229.723,-328 311.744,-328 311.744,-364"/>
<text text-anchor="middle" x="270.734" y="-342.7" font-family="Courier,monospace" font-size="11.00">MM_Metabox</text>
</g>
<!-- \\HaddowG\\MetaMaterial\\MM_Metabox&#45;&gt;\\HaddowG\\MetaMaterial\\Metamaterial -->
<g id="edge3" class="edge"><title>\\HaddowG\\MetaMaterial\\MM_Metabox&#45;&gt;\\HaddowG\\MetaMaterial\\Metamaterial</title>
<path fill="none" stroke="black" d="M229.625,-334.548C202.737,-326.871 166.94,-316.65 137.17,-308.15"/>
<polygon fill="none" stroke="black" points="137.903,-304.72 127.327,-305.34 135.981,-311.451 137.903,-304.72"/>
</g>
<!-- \\HaddowG\\MetaMaterial\\MM_Taxonomy -->
<g id="node8" class="node"><title>\\HaddowG\\MetaMaterial\\MM_Taxonomy</title>
<polygon fill="none" stroke="black" points="314.846,-256 226.621,-256 226.621,-220 314.846,-220 314.846,-256"/>
<text text-anchor="middle" x="270.734" y="-234.7" font-family="Courier,monospace" font-size="11.00">MM_Taxonomy</text>
</g>
<!-- \\HaddowG\\MetaMaterial\\MM_Taxonomy&#45;&gt;\\HaddowG\\MetaMaterial\\Metamaterial -->
<g id="edge4" class="edge"><title>\\HaddowG\\MetaMaterial\\MM_Taxonomy&#45;&gt;\\HaddowG\\MetaMaterial\\Metamaterial</title>
<path fill="none" stroke="black" d="M226.344,-250.389C199.907,-257.937 165.833,-267.666 137.281,-275.818"/>
<polygon fill="none" stroke="black" points="136.089,-272.519 127.434,-278.63 138.011,-279.25 136.089,-272.519"/>
</g>
<!-- \\HaddowG\\MetaMaterial\\MM_User -->
<g id="node9" class="node"><title>\\HaddowG\\MetaMaterial\\MM_User</title>
<polygon fill="none" stroke="black" points="301.942,-202 239.526,-202 239.526,-166 301.942,-166 301.942,-202"/>
<text text-anchor="middle" x="270.734" y="-180.7" font-family="Courier,monospace" font-size="11.00">MM_User</text>
</g>
<!-- \\HaddowG\\MetaMaterial\\MM_User&#45;&gt;\\HaddowG\\MetaMaterial\\Metamaterial -->
<g id="edge5" class="edge"><title>\\HaddowG\\MetaMaterial\\MM_User&#45;&gt;\\HaddowG\\MetaMaterial\\Metamaterial</title>
<path fill="none" stroke="black" d="M239.569,-193.988C227.051,-198.563 212.553,-204.433 200.023,-211 168.603,-227.469 135.403,-250.503 112.007,-267.799"/>
<polygon fill="none" stroke="black" points="109.771,-265.102 103.853,-273.89 113.959,-270.71 109.771,-265.102"/>
</g>
<!-- \\MM_MediaAccess -->
<g id="node10" class="node"><title>\\MM_MediaAccess</title>
<polygon fill="none" stroke="black" points="325.149,-88 216.318,-88 216.318,-52 325.149,-52 325.149,-88"/>
<text text-anchor="middle" x="270.734" y="-66.7" font-family="Courier,monospace" font-size="11.00">MM_MediaAccess</text>
</g>
</g>
</svg>
